Coordinates
version=1
nRows=14
nColumns=24
inDegrees=yes

Units are S.I. units (second, meters, Newtons, ...)
Angles are in degrees.

endheader
time	pelvis_tilt	pelvis_list	pelvis_rotation	pelvis_tx	pelvis_ty	pelvis_tz	hip_flexion_r	hip_adduction_r	hip_rotation_r	knee_angle_r	ankle_angle_r	subtalar_angle_r	mtp_angle_r	hip_flexion_l	hip_adduction_l	hip_rotation_l	knee_angle_l	ankle_angle_l	subtalar_angle_l	mtp_angle_l	lumbar_extension	lumbar_bending	lumbar_rotation
      1.02466667	     -2.66799949	     -1.48463548	     -3.82623575	     -0.02074191	      0.88154728	      0.32637415	    -16.45170755	      4.93628551	      2.17564766	     -6.83518842	     19.12082712	      7.75481562	      5.82109690	     29.16179920	     -3.04835981	     -8.09091102	     -4.37715080	      6.07227159	     -2.84047197	      0.40000199	     -4.60981572	      2.69630426	      9.40528894
      1.02883333	     -2.64149574	     -1.40991805	     -3.89129623	     -0.01489953	      0.88038399	      0.32616819	    -16.66057086	      4.78649377	      2.25510679	     -7.31088419	     19.27404256	      7.76057366	      5.87877786	     29.31251696	     -2.96470958	     -7.73422313	     -4.99451740	      5.96352495	     -2.78946652	      0.41677892	     -4.64360537	      2.53400606	      9.44571724
      1.03300000	     -2.67216087	     -1.31833287	     -3.97874125	     -0.00905095	      0.87917757	      0.32592642	    -16.71939063	      4.60015212	      2.17028337	     -7.96465268	     19.51718192	      8.16885513	      6.27763092	     29.53616957	     -2.87441777	     -7.44935429	     -5.71394879	      5.83052613	     -2.68054462	      0.55545805	     -4.58640487	      2.34854077	      9.56323851
      1.03716667	     -2.64694085	     -1.23916469	     -4.02710437	     -0.00315689	      0.87809381	      0.32568046	    -16.89950256	      4.44893326	      2.23936355	     -8.49716924	     19.61237015	      8.16933519	      6.36539794	     29.70892538	     -2.77409641	     -7.12460982	     -6.51814871	      5.66820332	     -2.70969127	      0.58784215	     -4.58687709	      2.17944881	      9.58702120
      1.04133333	     -2.66553706	     -1.12972226	     -4.07586309	      0.00276802	      0.87698825	      0.32536847	    -16.97381757	      4.25266920	      2.16673899	     -9.13750489	     19.67279902	      8.44841056	      9.26200902	     29.92184189	     -2.63550981	     -6.80325789	     -7.36097572	      5.40363675	     -2.79415991	      1.80988828	     -4.55104522	      1.97963225	      9.62453842
      1.04550000	     -2.65649834	     -1.01792243	     -4.11148065	      0.00873090	      0.87597262	      0.32506710	    -17.07879202	      4.06472890	      2.15169927	     -9.78900493	     19.73652283	      8.55595593	      9.30017291	     30.11655959	     -2.49098684	     -6.54257728	     -8.28549395	      5.16178317	     -2.82006259	      1.83581912	     -4.52678410	      1.76204871	      9.63571720
      1.04966667	     -2.63976282	     -0.88918694	     -4.12947596	      0.01474292	      0.87501307	      0.32472151	    -17.18056280	      3.85835303	      2.08285804	    -10.46134594	     19.75258309	      8.74610593	      9.38456395	     30.30375087	     -2.31545064	     -6.29364582	     -9.25422402	      4.85924375	     -2.91499148	      1.87859814	     -4.51614208	      1.53278816	      9.63382305
      1.05383333	     -2.61412038	     -0.74972957	     -4.13305847	      0.02079620	      0.87412247	      0.32434434	    -17.27092349	      3.64239963	      1.98547363	    -11.17728334	     19.73079616	      8.93598610	      9.52085069	     30.47545275	     -2.11695286	     -6.05138523	    -10.24717033	      4.51300714	     -3.07360302	      1.93701795	     -4.50337618	      1.28462759	      9.61108700
      1.05800000	     -2.58122576	     -0.60168454	     -4.12374663	      0.02689404	      0.87329822	      0.32392759	    -17.35570323	      3.41867183	      1.87241928	    -11.91974650	     19.64600671	      9.09273127	      9.69805016	     30.63570318	     -1.89827642	     -5.82444747	    -11.26446545	      4.13907587	     -3.27756820	      2.00273651	     -4.48944497	      1.02747205	      9.56925855
      1.06216667	     -2.55263155	     -0.45003221	     -4.10057306	      0.03302658	      0.87252007	      0.32349096	    -17.41471207	      3.19412516	      1.73596742	    -12.70387537	     19.52365608	      9.28130803	      9.96465175	     30.80002111	     -1.66743017	     -5.60424297	    -12.30649336	      3.73859282	     -3.54916751	      2.09026933	     -4.46084031	      0.76769424	      9.50706358
      1.06633333	     -2.45885984	     -0.30033593	     -4.06260553	      0.03922146	      0.87191059	      0.32306076	    -17.56012306	      2.98020084	      1.64715051	    -13.45246856	     19.26717708	      9.27066282	     10.07962588	     30.89712000	     -1.43774601	     -5.46966793	    -13.38469374	      3.37801172	     -3.74491148	      2.12095976	     -4.50691350	      0.50854292	      9.48165421
      1.07050000	     -2.44506074	     -0.11378274	     -4.01676285	      0.04542141	      0.87125234	      0.32254880	    -17.55144267	      2.72011375	      1.46779237	    -14.32142455	     18.96177065	      9.43275597	     14.52082774	     31.03902325	     -1.14059882	     -5.18434132	    -14.37933892	      2.88937091	     -4.27858052	      3.32363171	     -4.47319329	      0.19782601	      9.39591680
      1.07466667	     -2.41745276	      0.04324527	     -3.95289622	      0.05166193	      0.87066578	      0.32205434	    -17.55046698	      2.50367404	      1.30861529	    -15.21374506	     18.61481740	      9.54252431	     14.57414533	     31.20512590	     -0.89357601	     -5.05570499	    -15.48413720	      2.54990142	     -4.45475618	      3.33616466	     -4.43616050	     -0.07135601	      9.28524564
      1.07883333	     -2.39083908	      0.21585996	     -3.88454202	      0.05792617	      0.87015106	      0.32153082	    -17.51060584	      2.26868807	      1.13189175	    -16.17795865	     18.25424616	      9.65571683	     14.69790897	     31.34781827	     -0.61808327	     -4.89625719	    -16.55077010	      2.20543002	     -4.78418415	      3.35073986	     -4.39221576	     -0.36049285	      9.16202600
